<?xml version="1.0" encoding="UTF-8"?>
<svg version="1.1" xmlns="http://www.w3.org/2000/svg" width="528" height="537">
<path d="M0 0 C174.24 0 348.48 0 528 0 C528 177.21 528 354.42 528 537 C353.76 537 179.52 537 0 537 C0 359.79 0 182.58 0 0 Z " fill="#0297B4" transform="translate(0,0)"/>
<path d="M0 0 C14.19 0 28.38 0 43 0 C43 177.21 43 354.42 43 537 C-131.24 537 -305.48 537 -485 537 C-485 523.8 -485 510.6 -485 497 C-483.100377 499.8494345 -481.83769117 502.57197493 -480.4375 505.6875 C-475.54980101 515.41590087 -468.97451372 520.24633782 -458.86817312 523.97066975 C-451.56755954 526.15614973 -443.84236296 525.67831137 -436.29962158 525.62145996 C-434.42627543 525.6257953 -432.5529333 525.63231701 -430.67960143 525.64082003 C-425.56126269 525.65773703 -420.44341656 525.64368242 -415.325104 525.62430525 C-409.79407433 525.6088303 -404.26310315 525.62229235 -398.73207092 525.63204956 C-387.90955622 525.64655313 -377.08722955 525.63436594 -366.26473269 525.61293632 C-353.65848104 525.58889303 -341.05227217 525.59064267 -328.44600269 525.59324223 C-305.27525494 525.59704117 -282.10460228 525.57412264 -258.93389023 525.53889475 C-237.79168114 525.50688816 -216.64955633 525.49485419 -195.50732422 525.50097656 C-194.14913739 525.50136341 -192.79095056 525.50174987 -191.43276373 525.50213593 C-190.42555806 525.50242295 -190.42555806 525.50242295 -189.39800481 525.50271577 C-186.01774363 525.50367014 -182.63748243 525.50458451 -179.25722122 525.50545502 C-178.25685623 525.50571571 -178.25685623 525.50571571 -177.23628185 525.50598167 C-159.55418665 525.51033809 -141.87209976 525.50024304 -124.19001079 525.48561716 C-122.93300041 525.48457768 -121.67599004 525.48353819 -120.38088845 525.4824672 C-117.85633637 525.48037633 -115.33178432 525.47826536 -112.80723228 525.47613403 C-104.02080996 525.46923999 -95.23439961 525.46856884 -86.44797516 525.47001648 C-75.742925 525.47145621 -65.03795048 525.46176438 -54.33292541 525.43807012 C-48.87157043 525.4262119 -43.41032088 525.41908392 -37.94895363 525.42490768 C-32.94907177 525.43008184 -27.9494126 525.42138289 -22.94956884 525.40163308 C-21.14160543 525.39689606 -19.33362032 525.3971898 -17.52566019 525.40304345 C-3.75855871 525.44330806 8.6652157 524.15981745 19.046875 513.99609375 C28.5154024 502.6864638 28.58743143 490.66463122 28.54589844 476.65771484 C28.55464815 474.6915481 28.56513091 472.72538843 28.5771904 470.7592392 C28.60514201 465.37913326 28.60840363 459.99925663 28.6074543 454.61908865 C28.61072318 448.81869246 28.63684989 443.01839262 28.66003418 437.2180481 C28.70164345 425.88344548 28.72185349 414.54890166 28.73446083 403.21423352 C28.74513731 394.01364665 28.76391939 384.81310891 28.78845215 375.61254883 C28.79368161 373.64918984 28.79368161 373.64918984 28.79901671 371.64616704 C28.80613247 368.98872657 28.81326721 366.33128614 28.82042074 363.67384577 C28.88468525 339.61120116 28.92582006 315.54855971 28.95573992 291.48585039 C28.98248804 269.98433651 29.02353393 248.48290633 29.078125 226.98144531 C29.13808136 203.30210475 29.18690833 179.62277189 29.21818924 155.94337273 C29.22150879 153.43256505 29.22482885 150.92175738 29.22814941 148.41094971 C29.22976507 147.1763953 29.23138072 145.94184089 29.23304534 144.66987574 C29.24499077 135.98390155 29.26355749 127.29795606 29.2845459 118.61199951 C29.30981309 108.03977637 29.32400435 97.46760548 29.3241396 86.89535105 C29.32444184 81.51457768 29.329446 76.13392314 29.34754944 70.75317764 C29.36394985 65.83104664 29.36628532 60.90911323 29.35756922 55.98696446 C29.35683457 54.21196738 29.36112795 52.43695922 29.37108755 50.66198993 C29.44905691 35.91994061 28.39900555 22.62033745 18.25390625 11 C12.98810462 5.92030778 6.80703626 3.46187811 0 1 C0 0.67 0 0.34 0 0 Z " fill="#3F4144" transform="translate(485,0)"/>
<path d="M0 0 C6.6 0 13.2 0 20 0 C20 36.63 20 73.26 20 111 C13.4 111 6.8 111 0 111 C-0.33 105.39 -0.66 99.78 -1 94 C-1.825 95.19625 -2.65 96.3925 -3.5 97.625 C-9.29360353 105.26877528 -16.58487151 109.96024756 -26 112 C-38.74687 113.13333809 -49.22155233 111.76507628 -59.67578125 103.953125 C-68.08410036 96.88731062 -74.20040446 87.72198467 -75.22290039 76.56860352 C-75.83917097 62.16011761 -75.59844736 49.432987 -65.8515625 37.96484375 C-58.32366848 29.97638238 -50.62866679 25.2160815 -39.48828125 24.76171875 C-25.20331752 24.45177499 -16.85144657 25.72994415 -6.12890625 35.78125 C-4 38 -4 38 -1 42 C-0.67 28.14 -0.34 14.28 0 0 Z " fill="#FBFDFD" transform="translate(439,275)"/>
<path d="M0 0 C29.04 0 58.08 0 88 0 C88 27.39 88 54.78 88 83 C58.96 83 29.92 83 0 83 C0 55.61 0 28.22 0 0 Z " fill="#FFFFFF" transform="translate(0,301)"/>
<path d="M0 0 C3.15463065 2.98801283 6.04675857 6.09351715 8 10 C8.33 4.72 8.66 -0.56 9 -6 C15.6 -6 22.2 -6 29 -6 C29 22.05 29 50.1 29 79 C22.4 79 15.8 79 9 79 C8.67 73.39 8.34 67.78 8 62 C6.5459375 64.041875 6.5459375 64.041875 5.0625 66.125 C-0.53116706 73.28309305 -7.94808626 78.41950713 -17 80 C-29.26752324 81.03831701 -39.94479345 79.71678642 -50 72 C-50.969375 71.319375 -51.93875 70.63875 -52.9375 69.9375 C-60.2245606 63.70514554 -65.1952998 53.80909756 -66.31518555 44.33300781 C-66.47330734 41.46419084 -66.51884835 38.62306153 -66.5 35.75 C-66.49427979 34.73728027 -66.48855957 33.72456055 -66.48266602 32.68115234 C-66.19744724 20.69043988 -62.70059505 10.6135891 -54 2 C-38.01251376 -10.8977061 -16.93153459 -11.67867898 0 0 Z " fill="#FAFDFD" transform="translate(389,182)"/>
<path d="M0 0 C27.72 0 55.44 0 84 0 C84 27.72 84 55.44 84 84 C56.28 84 28.56 84 0 84 C0 56.28 0 28.56 0 0 Z " fill="#FBFDFD" transform="translate(431,176)"/>
<path d="M0 0 C7.32766796 4.35037801 11.08411436 9.79650065 15.10546875 17.25 C15.52505859 16.37988281 15.52505859 16.37988281 15.953125 15.4921875 C18.87905246 9.7908626 21.81719115 5.88044455 27.10546875 2.25 C27.75515625 1.76273437 28.40484375 1.27546875 29.07421875 0.7734375 C37.2827786 -4.40026748 47.76442407 -4.11357109 57.10546875 -2.75 C67.03824498 0.345664 72.81930486 6.20226024 78.67578125 14.48046875 C83.03591309 22.92673508 83.52204886 31.10967542 83.3984375 40.4765625 C83.39419266 41.70539154 83.38994781 42.93422058 83.38557434 44.20028687 C83.36889665 48.0920889 83.33126379 51.98335673 83.29296875 55.875 C83.27790786 58.52733623 83.26422192 61.17968064 83.25195312 63.83203125 C83.21902873 70.30489065 83.16732143 76.77735501 83.10546875 83.25 C76.83546875 83.25 70.56546875 83.25 64.10546875 83.25 C64.09612305 81.79295654 64.08677734 80.33591309 64.07714844 78.8347168 C64.03703128 73.38682393 63.97121249 67.93948293 63.89794922 62.49194336 C63.86986514 60.14208102 63.84858867 57.79212643 63.83447266 55.44213867 C63.8128689 52.04818918 63.76612848 48.65533446 63.71484375 45.26171875 C63.71300079 43.70634651 63.71300079 43.70634651 63.71112061 42.11955261 C63.54617243 33.75272915 61.9887986 25.99053602 56.79296875 19.25 C50.10629849 14.27387329 44.32437252 13.36507378 36.10546875 14.25 C30.97706515 15.48888402 27.39475678 18.16061488 24.10546875 22.25 C19.99031312 29.18369402 19.50502265 35.5753691 19.49609375 43.50390625 C19.4795575 44.64536606 19.46302124 45.78682587 19.44598389 46.96287537 C19.3977157 50.57947281 19.37617912 54.19565038 19.35546875 57.8125 C19.3272915 60.27671359 19.29736164 62.7409078 19.265625 65.20507812 C19.19196182 71.2200175 19.14225747 77.23472666 19.10546875 83.25 C12.83546875 83.25 6.56546875 83.25 0.10546875 83.25 C0.07573975 81.19289795 0.07573975 81.19289795 0.04541016 79.09423828 C-0.03110269 73.96889995 -0.11974726 68.84382874 -0.21191406 63.71875 C-0.25001609 61.50754093 -0.28490046 59.29627383 -0.31640625 57.08496094 C-0.3624671 53.89236825 -0.42039123 50.70016861 -0.48046875 47.5078125 C-0.49201996 46.53135773 -0.50357117 45.55490295 -0.51547241 44.54885864 C-0.73762424 34.03678735 -1.90400569 26.23863067 -8.76953125 18 C-13.81728261 13.84302829 -19.61241641 13.75766178 -25.91796875 13.8671875 C-31.69347133 14.60996867 -35.24717414 17.55811972 -39.20703125 21.625 C-43.89208499 28.91286137 -44.35670317 34.76916406 -44.40625 43.30859375 C-44.4242012 44.45288345 -44.4421524 45.59717316 -44.46064758 46.77613831 C-44.51461578 50.41322195 -44.54860394 54.05017534 -44.58203125 57.6875 C-44.61521612 60.16082536 -44.64970686 62.63413357 -44.68554688 65.10742188 C-44.77033496 71.15485376 -44.83721109 77.20224791 -44.89453125 83.25 C-51.82453125 83.25 -58.75453125 83.25 -65.89453125 83.25 C-65.89453125 55.2 -65.89453125 27.15 -65.89453125 -1.75 C-59.29453125 -1.75 -52.69453125 -1.75 -45.89453125 -1.75 C-45.56453125 3.2 -45.23453125 8.15 -44.89453125 13.25 C-44.09015625 12.05375 -43.28578125 10.8575 -42.45703125 9.625 C-32.78715215 -3.26817214 -14.43019378 -6.96129951 0 0 Z " fill="#FBFDFD" transform="translate(168.89453125,302.75)"/>
<path d="M0 0 C10.56387687 7.75330412 16.97277222 18.4268111 19.1875 31.3125 C19.1875 34.9425 19.1875 38.5725 19.1875 42.3125 C-4.2425 42.3125 -27.6725 42.3125 -51.8125 42.3125 C-47.39580595 53.35423512 -44.37628887 58.56918872 -33.8125 63.3125 C-25.34453025 65.94106428 -17.52728131 64.32803679 -9.8125 60.3125 C-6.35381002 57.9064548 -3.8242781 55.3242781 -0.8125 52.3125 C3.8075 54.6225 8.4275 56.9325 13.1875 59.3125 C9.40981853 68.75670366 2.18496375 74.01975484 -6.91015625 78.16015625 C-19.64018372 83.21447402 -33.65502748 82.61679012 -46.24609375 77.28125 C-57.5619851 71.47621735 -64.97059371 63.08814302 -69.125 51.1875 C-72.45070669 39.50696917 -71.81360342 27.67617725 -66.55859375 16.69140625 C-60.00834726 4.96521567 -51.10565827 -1.53581334 -38.44921875 -5.828125 C-25.4542821 -8.89889413 -11.40871688 -6.97739244 0 0 Z " fill="#F9FCFD" transform="translate(214.8125,180.6875)"/>
<path d="M0 0 C8.28764064 7.65903715 12.50113262 17.88113871 13.875 28.9375 C13.875 31.9075 13.875 34.8775 13.875 37.9375 C-9.555 37.9375 -32.985 37.9375 -57.125 37.9375 C-52.52104085 48.98700195 -50.32221061 53.24300906 -40.875 58.875 C-31.68401303 61.47911298 -22.53554278 60.51188612 -14.125 55.9375 C-11.5100355 53.80999404 -9.265492 51.53823431 -7.125 48.9375 C-1.64567211 50.48295146 2.98929181 53.09293212 7.875 55.9375 C3.22094659 65.43952571 -4.32367216 71.13378702 -14.125 74.9375 C-26.77210853 78.66260097 -41.07321036 78.5445488 -52.95703125 72.49609375 C-64.13837064 65.90353933 -71.64596202 56.57170399 -75.4375 44.125 C-78.00429459 31.88336425 -75.96712821 18.4831655 -69.125 7.9375 C-61.35975576 -2.58431586 -51.33493834 -8.25340497 -38.625 -10.75 C-24.11078106 -12.04591241 -11.55776573 -9.08268014 0 0 Z " fill="#FBFDFE" transform="translate(339.125,310.0625)"/>
<path d="M0 0 C6.6 0 13.2 0 20 0 C24.12663003 8.75547456 27.89048912 17.53182516 31.375 26.5625 C32.32630737 29.00671113 33.27813452 31.45072003 34.23046875 33.89453125 C34.69501465 35.08900879 35.15956055 36.28348633 35.63818359 37.51416016 C37.62664665 42.60402668 39.65258472 47.67855859 41.6875 52.75 C42.0263623 53.59506104 42.36522461 54.44012207 42.71435547 55.31079102 C43.47545908 57.20750635 44.23759135 59.10380887 45 61 C50.46132741 49.5542553 55.00347028 37.7127252 59.7097168 25.94360352 C60.82577021 23.15526274 61.94591469 20.36859092 63.06640625 17.58203125 C63.40193008 16.7391304 63.73745392 15.89622955 64.08314514 15.02778625 C64.56901344 13.82064217 64.56901344 13.82064217 65.06469727 12.58911133 C65.34273697 11.89392899 65.62077667 11.19874664 65.90724182 10.48249817 C67.47231647 6.92700436 69.26270355 3.47459291 71 0 C77.27 0 83.54 0 90 0 C89.07381207 4.63093965 87.63935505 8.54118556 85.78125 12.83203125 C85.28594032 13.99184761 85.28594032 13.99184761 84.78062439 15.1750946 C83.69147133 17.72280028 82.5957189 20.26761214 81.5 22.8125 C80.74176913 24.58311941 79.98404513 26.35395595 79.22680664 28.125 C77.63898754 31.83758729 76.04893908 35.54920864 74.45751953 39.26025391 C70.81008013 47.7717934 67.19364228 56.29651001 63.57519531 64.82040405 C61.75837403 69.09953476 59.93966682 73.37786357 58.12109375 77.65625 C57.09113281 80.0796875 56.06117188 82.503125 55 85 C48.73 85 42.46 85 36 85 C13.08870639 32.40356242 13.08870639 32.40356242 5.0625 13.25 C4.65724594 12.28512161 4.65724594 12.28512161 4.24380493 11.30075073 C0 1.18485516 0 1.18485516 0 0 Z " fill="#FAFDFD" transform="translate(231,176)"/>
<path d="M0 0 C6.86195221 4.4688629 12.07950397 9.11760833 14.02734375 17.3203125 C15.14771063 26.43262979 14.30901182 33.70252202 9.02734375 41.3203125 C3.88308796 47.38789625 -2.45783139 51.83744765 -10.515625 52.54296875 C-20.80520186 52.86939671 -26.40231498 50.30416038 -33.9921875 43.453125 C-39.94042143 37.04733461 -41.47974217 29.6250071 -41.28125 21.08984375 C-40.39307728 13.11877463 -35.89937835 6.55046766 -29.97265625 1.3203125 C-21.51610896 -4.65991516 -9.043309 -4.81636196 0 0 Z " fill="#0385B7" transform="translate(423.97265625,318.6796875)"/>
<path d="M0 0 C6.43064572 5.48925223 11.30956794 11.2342105 12.2421875 19.81640625 C12.62885327 28.98732516 11.2724138 35.78136744 5.02734375 42.6796875 C-1.13542513 48.4348024 -7.46599533 51.19820935 -15.98046875 51.1171875 C-16.68155762 51.11146729 -17.38264648 51.10574707 -18.10498047 51.09985352 C-26.04249418 50.82706463 -31.02137752 48.05280231 -36.41796875 42.4296875 C-41.5311087 35.83530367 -43.82623918 28.68375621 -43.49609375 20.359375 C-42.55643475 13.76296884 -39.92086862 7.29882626 -35.10546875 2.6171875 C-25.38633118 -4.43119532 -10.52937962 -7.12696059 0 0 Z " fill="#04A1B3" transform="translate(385.10546875,194.3828125)"/>
<path d="M0 0 C6.9297941 4.29647234 12.49898127 8.99033807 15.125 16.9375 C15.125 17.9275 15.125 18.9175 15.125 19.9375 C-1.705 19.9375 -18.535 19.9375 -35.875 19.9375 C-32.91715529 11.06396586 -30.31915206 5.33427218 -22.3125 0.4375 C-15.79997024 -2.42445155 -6.67269472 -2.4543245 0 0 Z " fill="#078AB8" transform="translate(318.875,317.0625)"/>
<path d="M0 0 C6.63718073 4.56366734 8.47462263 9.13578858 10.67578125 16.83984375 C-5.82421875 16.83984375 -22.32421875 16.83984375 -39.32421875 16.83984375 C-38.13112634 8.48819687 -35.84292356 4.62548506 -29.32421875 -0.53515625 C-19.15712844 -6.04233017 -10.05627113 -5.54334012 0 0 Z " fill="#07A5B3" transform="translate(204.32421875,194.16015625)"/>
<path d="M0 0 C14.19 0 28.38 0 43 0 C43 13.53 43 27.06 43 41 C41.94344799 38.88689598 40.89216394 36.77070649 39.88671875 34.6328125 C35.53911069 25.54107187 30.96802573 20.75182731 22.7578125 15.015625 C20.32726961 13.23919422 18.22640873 11.39492263 16.0625 9.3125 C11.41510691 5.08230504 5.8413563 3.11262386 0 1 C0 0.67 0 0.34 0 0 Z " fill="#000000" transform="translate(485,0)"/>
<path d="M0 0 C1.899623 2.8494345 3.16230883 5.57197493 4.5625 8.6875 C8.81082985 17.27764373 15.1552417 21.82959112 23 27 C23.78375 27.804375 24.5675 28.60875 25.375 29.4375 C30.17665219 34.12482714 35.51103287 37.21553404 42 39 C42 39.33 42 39.66 42 40 C28.14 40 14.28 40 0 40 C0 26.8 0 13.6 0 0 Z " fill="#000000" transform="translate(0,497)"/>
<path d="M0 0 C9.57 0 19.14 0 29 0 C26.42906526 1.71395649 24.03576497 2.9522834 21.25 4.25 C11.2470771 9.26600058 5.61121157 16.11589676 1.625 26.625 C1.41875 27.40875 1.2125 28.1925 1 29 C0.67 29 0.34 29 0 29 C0 19.43 0 9.86 0 0 Z " fill="#000000" transform="translate(0,0)"/>
<path d="M0 0 C0.33 0 0.66 0 1 0 C1 9.9 1 19.8 1 30 C-8.57 30 -18.14 30 -28 30 C-25.83690668 28.91845334 -23.6700544 27.84373695 -21.484375 26.80859375 C-11.31544165 21.70960003 -4.67561861 14.86072617 -1 4 C-0.64887705 2.67124059 -0.30991878 1.33896947 0 0 Z " fill="#000000" transform="translate(527,507)"/>
</svg>
